# Blender v2.78 (sub 0) OBJ File: ''
# www.blender.org
mtllib movingHeadBase.mtl
o Moving-Wash.001
v 5.889764 2.893701 4.322835
v 5.889764 0.393701 4.322835
v 5.889764 0.393701 -5.677165
v 5.889764 2.893701 -5.677165
v 5.813643 2.893701 4.705518
v 5.813643 0.393701 4.705518
v 5.596870 2.893701 5.029942
v 5.596870 0.393701 5.029942
v 5.272448 2.893701 5.246714
v 5.272448 0.393701 5.246714
v 4.889764 2.893701 5.322834
v 4.889764 0.393701 5.322834
v 4.389764 3.776384 5.246714
v 4.389764 3.393701 5.322834
v 4.581106 3.355641 5.322834
v 4.727552 3.709194 5.246714
v 4.743317 3.247254 5.322834
v 5.013915 3.517852 5.246714
v 4.851704 3.085042 5.322834
v 5.205257 3.231489 5.246714
v 4.389764 4.100808 5.029942
v 4.851704 4.008922 5.029942
v 5.243317 3.747254 5.029942
v 5.504985 3.355641 5.029942
v 4.389764 4.317580 4.705518
v 4.934659 4.209194 4.705518
v 5.396599 3.900536 4.705518
v 5.705257 3.438596 4.705518
v 4.389764 4.393701 4.322835
v 4.963789 4.279520 4.322835
v 5.450424 3.954361 4.322835
v 5.775583 3.467726 4.322835
v -5.072176 3.085042 5.322834
v -4.610236 3.393701 5.322834
v -4.801578 3.355641 5.322834
v -4.963790 3.247254 5.322834
v -5.110237 2.893701 5.322834
v -5.110237 0.393701 5.322834
v -5.492919 2.893701 5.246714
v -5.492919 0.393701 5.246714
v -5.817343 2.893701 5.029942
v -5.817343 0.393701 5.029942
v -6.034115 2.893701 4.705518
v -6.034115 0.393701 4.705518
v -6.110236 2.893701 4.322835
v -6.110236 0.393701 4.322835
v -5.425729 3.231489 5.246714
v -5.234388 3.517852 5.246714
v -4.948024 3.709194 5.246714
v -5.725457 3.355641 5.029942
v -5.463789 3.747254 5.029942
v -5.072176 4.008922 5.029942
v -4.610236 3.776384 5.246714
v -5.925730 3.438596 4.705518
v -5.617071 3.900536 4.705518
v -5.155131 4.209194 4.705518
v -4.610236 4.100808 5.029942
v -5.996056 3.467726 4.322835
v -5.670896 3.954361 4.322835
v -5.184261 4.279520 4.322835
v -4.610236 4.317580 4.705518
v -4.610236 4.393701 4.322835
v -6.110236 2.893701 -5.677165
v -6.110236 0.393701 -5.677165
v 4.889764 0.393701 -6.677165
v 5.272448 0.393701 -6.601045
v 5.596870 0.393701 -6.384272
v -5.110237 0.393701 -6.677165
v -6.034115 0.393701 -6.059849
v -5.817343 0.393701 -6.384272
v 5.813643 0.393701 -6.059849
v -5.492919 0.393701 -6.601045
v 4.389764 4.393701 -5.677165
v -4.610236 4.393701 -5.677165
v -5.996056 3.467726 -5.677165
v -5.670896 3.954361 -5.677165
v -5.184261 4.279520 -5.677165
v -6.034115 2.893701 -6.059849
v -5.817343 2.893701 -6.384272
v -5.492919 2.893701 -6.601045
v -5.110237 2.893701 -6.677165
v -4.610236 3.776384 -6.601045
v -4.610236 3.393701 -6.677165
v -4.801578 3.355641 -6.677165
v -4.948024 3.709194 -6.601045
v -4.963790 3.247254 -6.677165
v -5.234388 3.517852 -6.601045
v -5.072176 3.085042 -6.677165
v -5.425729 3.231489 -6.601045
v -4.610236 4.100808 -6.384272
v -5.072176 4.008922 -6.384272
v -5.463789 3.747254 -6.384272
v -5.725457 3.355641 -6.384272
v -4.610236 4.317580 -6.059849
v -5.155131 4.209194 -6.059849
v -5.617071 3.900536 -6.059849
v -5.925730 3.438596 -6.059849
v 4.389764 3.393701 -6.677165
v 4.581106 3.355641 -6.677165
v 4.743317 3.247254 -6.677165
v 4.851704 3.085042 -6.677165
v 4.889764 2.893701 -6.677165
v 5.775583 3.467726 -5.677165
v 5.450424 3.954361 -5.677165
v 4.963789 4.279520 -5.677165
v 5.272448 2.893701 -6.601045
v 5.596870 2.893701 -6.384272
v 5.813643 2.893701 -6.059849
v 5.205257 3.231489 -6.601045
v 5.013915 3.517852 -6.601045
v 4.727552 3.709194 -6.601045
v 5.504985 3.355641 -6.384272
v 5.243317 3.747254 -6.384272
v 4.851704 4.008922 -6.384272
v 4.389764 3.776384 -6.601045
v 5.705257 3.438596 -6.059849
v 5.396599 3.900536 -6.059849
v 4.934659 4.209194 -6.059849
v 4.389764 4.100808 -6.384272
v 4.389764 4.317580 -6.059849
vn 1.0000 0.0000 0.0000
vn 0.9808 0.0000 0.1951
vn 0.8315 0.0000 0.5556
vn 0.5556 0.0000 0.8315
vn 0.1951 0.0000 0.9808
vn 0.0388 0.1949 0.9800
vn 0.1104 0.1653 0.9800
vn 0.1653 0.1104 0.9800
vn 0.1949 0.0388 0.9800
vn 0.1098 0.5522 0.8264
vn 0.3128 0.4681 0.8264
vn 0.4681 0.3128 0.8264
vn 0.5522 0.1098 0.8264
vn 0.1632 0.8203 0.5481
vn 0.4647 0.6954 0.5481
vn 0.6954 0.4647 0.5481
vn 0.8203 0.1632 0.5481
vn 0.1915 0.9626 0.1915
vn 0.5453 0.8161 0.1915
vn 0.8161 0.5453 0.1915
vn 0.9626 0.1915 0.1915
vn 0.0000 0.0000 1.0000
vn -0.1951 0.0000 0.9808
vn -0.5556 0.0000 0.8315
vn -0.8315 0.0000 0.5556
vn -0.9808 0.0000 0.1951
vn -0.1949 0.0388 0.9800
vn -0.1653 0.1104 0.9800
vn -0.1104 0.1653 0.9800
vn -0.0388 0.1949 0.9800
vn -0.5522 0.1098 0.8264
vn -0.4681 0.3128 0.8264
vn -0.3128 0.4681 0.8264
vn -0.1098 0.5522 0.8264
vn -0.8203 0.1632 0.5481
vn -0.6954 0.4647 0.5481
vn -0.4647 0.6954 0.5481
vn -0.1632 0.8203 0.5481
vn -0.9626 0.1915 0.1915
vn -0.8161 0.5453 0.1915
vn -0.5453 0.8161 0.1915
vn -0.1915 0.9626 0.1915
vn -1.0000 0.0000 0.0000
vn 0.0000 -1.0000 0.0000
vn 0.0000 0.1951 0.9808
vn 0.0000 0.5556 0.8315
vn 0.0000 0.8315 0.5556
vn 0.0000 0.9808 0.1951
vn 0.0000 1.0000 0.0000
vn -0.9808 0.1951 0.0000
vn -0.8315 0.5556 0.0000
vn -0.5556 0.8315 0.0000
vn -0.1951 0.9808 0.0000
vn -0.9808 0.0000 -0.1951
vn -0.8315 0.0000 -0.5556
vn -0.5556 0.0000 -0.8315
vn -0.1951 0.0000 -0.9808
vn -0.0388 0.1949 -0.9800
vn -0.1104 0.1653 -0.9800
vn -0.1653 0.1104 -0.9800
vn -0.1949 0.0388 -0.9800
vn -0.1098 0.5522 -0.8264
vn -0.3128 0.4681 -0.8264
vn -0.4681 0.3128 -0.8264
vn -0.5522 0.1098 -0.8264
vn -0.1632 0.8203 -0.5481
vn -0.4647 0.6954 -0.5481
vn -0.6954 0.4647 -0.5481
vn -0.8203 0.1632 -0.5481
vn -0.1915 0.9626 -0.1915
vn -0.5453 0.8161 -0.1915
vn -0.8161 0.5453 -0.1915
vn -0.9626 0.1915 -0.1915
vn 0.0000 0.0000 -1.0000
vn 0.9808 0.1951 0.0000
vn 0.8315 0.5556 0.0000
vn 0.5556 0.8315 0.0000
vn 0.1951 0.9808 0.0000
vn 0.1951 0.0000 -0.9808
vn 0.5556 0.0000 -0.8315
vn 0.8315 0.0000 -0.5556
vn 0.9808 0.0000 -0.1951
vn 0.1949 0.0388 -0.9800
vn 0.1653 0.1104 -0.9800
vn 0.1104 0.1653 -0.9800
vn 0.0388 0.1949 -0.9800
vn 0.5522 0.1098 -0.8264
vn 0.4681 0.3128 -0.8264
vn 0.3128 0.4681 -0.8264
vn 0.1098 0.5522 -0.8264
vn 0.8203 0.1632 -0.5481
vn 0.6954 0.4647 -0.5481
vn 0.4647 0.6954 -0.5481
vn 0.1632 0.8203 -0.5481
vn 0.9626 0.1915 -0.1915
vn 0.8161 0.5453 -0.1915
vn 0.5453 0.8161 -0.1915
vn 0.1915 0.9626 -0.1915
vn 0.0000 0.1951 -0.9808
vn 0.0000 0.5556 -0.8315
vn 0.0000 0.8315 -0.5556
vn 0.0000 0.9808 -0.1951
usemtl None
s off
f 1//1 2//1 3//1
f 3//1 4//1 1//1
f 2//2 1//2 5//2
f 6//3 5//3 7//3
f 8//4 7//4 9//4
f 10//5 9//5 11//5
f 11//5 12//5 10//5
f 9//4 10//4 8//4
f 7//3 8//3 6//3
f 5//2 6//2 2//2
f 13//6 14//6 15//6
f 16//7 15//7 17//7
f 18//8 17//8 19//8
f 20//9 19//9 11//9
f 21//10 13//10 16//10
f 22//11 16//11 18//11
f 23//12 18//12 20//12
f 24//13 20//13 9//13
f 25//14 21//14 22//14
f 26//15 22//15 23//15
f 27//16 23//16 24//16
f 28//17 24//17 7//17
f 29//18 25//18 26//18
f 30//19 26//19 27//19
f 31//20 27//20 28//20
f 32//21 28//21 5//21
f 5//21 1//21 32//21
f 28//20 32//20 31//20
f 27//19 31//19 30//19
f 26//18 30//18 29//18
f 7//17 5//17 28//17
f 24//16 28//16 27//16
f 23//15 27//15 26//15
f 22//14 26//14 25//14
f 9//13 7//13 24//13
f 20//12 24//12 23//12
f 18//11 23//11 22//11
f 16//10 22//10 21//10
f 11//9 9//9 20//9
f 19//8 20//8 18//8
f 17//7 18//7 16//7
f 15//6 16//6 13//6
f 33//22 34//22 35//22
f 35//22 36//22 33//22
f 14//22 19//22 17//22
f 33//22 37//22 34//22
f 12//22 14//22 34//22
f 14//22 11//22 19//22
f 34//22 38//22 12//22
f 14//22 12//22 11//22
f 17//22 15//22 14//22
f 37//22 38//22 34//22
f 38//23 37//23 39//23
f 40//24 39//24 41//24
f 42//25 41//25 43//25
f 44//26 43//26 45//26
f 45//26 46//26 44//26
f 43//25 44//25 42//25
f 41//24 42//24 40//24
f 39//23 40//23 38//23
f 39//27 37//27 33//27
f 47//28 33//28 36//28
f 48//29 36//29 35//29
f 49//30 35//30 34//30
f 41//31 39//31 47//31
f 50//32 47//32 48//32
f 51//33 48//33 49//33
f 52//34 49//34 53//34
f 43//35 41//35 50//35
f 54//36 50//36 51//36
f 55//37 51//37 52//37
f 56//38 52//38 57//38
f 45//39 43//39 54//39
f 58//40 54//40 55//40
f 59//41 55//41 56//41
f 60//42 56//42 61//42
f 61//42 62//42 60//42
f 56//41 60//41 59//41
f 55//40 59//40 58//40
f 54//39 58//39 45//39
f 57//38 61//38 56//38
f 52//37 56//37 55//37
f 51//36 55//36 54//36
f 50//35 54//35 43//35
f 53//34 57//34 52//34
f 49//33 52//33 51//33
f 48//32 51//32 50//32
f 47//31 50//31 41//31
f 34//30 53//30 49//30
f 35//29 49//29 48//29
f 36//28 48//28 47//28
f 33//27 47//27 39//27
f 46//43 45//43 63//43
f 63//43 64//43 46//43
f 3//44 65//44 66//44
f 66//44 67//44 3//44
f 68//44 64//44 69//44
f 46//44 40//44 42//44
f 46//44 68//44 3//44
f 3//44 68//44 65//44
f 69//44 70//44 68//44
f 46//44 38//44 40//44
f 46//44 2//44 12//44
f 10//44 2//44 6//44
f 67//44 71//44 3//44
f 68//44 46//44 64//44
f 12//44 38//44 46//44
f 6//44 8//44 10//44
f 70//44 72//44 68//44
f 10//44 12//44 2//44
f 42//44 44//44 46//44
f 3//44 2//44 46//44
f 34//45 14//45 13//45
f 53//46 13//46 21//46
f 57//47 21//47 25//47
f 61//48 25//48 29//48
f 29//48 62//48 61//48
f 25//47 61//47 57//47
f 21//46 57//46 53//46
f 13//45 53//45 34//45
f 62//49 29//49 73//49
f 73//49 74//49 62//49
f 63//50 45//50 58//50
f 75//51 58//51 59//51
f 76//52 59//52 60//52
f 77//53 60//53 62//53
f 62//53 74//53 77//53
f 60//52 77//52 76//52
f 59//51 76//51 75//51
f 58//50 75//50 63//50
f 64//54 63//54 78//54
f 69//55 78//55 79//55
f 70//56 79//56 80//56
f 72//57 80//57 81//57
f 81//57 68//57 72//57
f 80//56 72//56 70//56
f 79//55 70//55 69//55
f 78//54 69//54 64//54
f 82//58 83//58 84//58
f 85//59 84//59 86//59
f 87//60 86//60 88//60
f 89//61 88//61 81//61
f 90//62 82//62 85//62
f 91//63 85//63 87//63
f 92//64 87//64 89//64
f 93//65 89//65 80//65
f 94//66 90//66 91//66
f 95//67 91//67 92//67
f 96//68 92//68 93//68
f 97//69 93//69 79//69
f 74//70 94//70 95//70
f 77//71 95//71 96//71
f 76//72 96//72 97//72
f 75//73 97//73 78//73
f 78//73 63//73 75//73
f 97//72 75//72 76//72
f 96//71 76//71 77//71
f 95//70 77//70 74//70
f 79//69 78//69 97//69
f 93//68 97//68 96//68
f 92//67 96//67 95//67
f 91//66 95//66 94//66
f 80//65 79//65 93//65
f 89//64 93//64 92//64
f 87//63 92//63 91//63
f 85//62 91//62 90//62
f 81//61 80//61 89//61
f 88//60 89//60 87//60
f 86//59 87//59 85//59
f 84//58 85//58 82//58
f 88//74 86//74 84//74
f 98//74 99//74 100//74
f 83//74 81//74 88//74
f 100//74 101//74 98//74
f 68//74 83//74 98//74
f 83//74 68//74 81//74
f 101//74 102//74 98//74
f 84//74 83//74 88//74
f 98//74 65//74 68//74
f 102//74 65//74 98//74
f 1//75 4//75 103//75
f 32//76 103//76 104//76
f 31//77 104//77 105//77
f 30//78 105//78 73//78
f 73//78 29//78 30//78
f 105//77 30//77 31//77
f 104//76 31//76 32//76
f 103//75 32//75 1//75
f 65//79 102//79 106//79
f 66//80 106//80 107//80
f 67//81 107//81 108//81
f 71//82 108//82 4//82
f 4//82 3//82 71//82
f 108//81 71//81 67//81
f 107//80 67//80 66//80
f 106//79 66//79 65//79
f 106//83 102//83 101//83
f 109//84 101//84 100//84
f 110//85 100//85 99//85
f 111//86 99//86 98//86
f 107//87 106//87 109//87
f 112//88 109//88 110//88
f 113//89 110//89 111//89
f 114//90 111//90 115//90
f 108//91 107//91 112//91
f 116//92 112//92 113//92
f 117//93 113//93 114//93
f 118//94 114//94 119//94
f 4//95 108//95 116//95
f 103//96 116//96 117//96
f 104//97 117//97 118//97
f 105//98 118//98 120//98
f 120//98 73//98 105//98
f 118//97 105//97 104//97
f 117//96 104//96 103//96
f 116//95 103//95 4//95
f 119//94 120//94 118//94
f 114//93 118//93 117//93
f 113//92 117//92 116//92
f 112//91 116//91 108//91
f 115//90 119//90 114//90
f 111//89 114//89 113//89
f 110//88 113//88 112//88
f 109//87 112//87 107//87
f 98//86 115//86 111//86
f 99//85 111//85 110//85
f 100//84 110//84 109//84
f 101//83 109//83 106//83
f 98//99 83//99 82//99
f 115//100 82//100 90//100
f 119//101 90//101 94//101
f 120//102 94//102 74//102
f 74//102 73//102 120//102
f 94//101 120//101 119//101
f 90//100 119//100 115//100
f 82//99 115//99 98//99
