# Blender v2.78 (sub 0) OBJ File: ''
# www.blender.org
mtllib movingHeadLight.mtl
o Moving-Wash.002
v -3.000000 -2.903611 4.833980
v -3.000000 -2.138245 4.986220
v -3.765367 -2.138245 4.833980
v -3.707107 -2.903611 4.693327
v -4.414214 -2.138245 4.400434
v -4.306563 -2.903611 4.292783
v -4.847759 -2.138245 3.751587
v -4.707107 -2.903611 3.693327
v -5.000000 -2.138245 2.986221
v -3.000000 -3.552458 4.400434
v -3.541196 -3.552458 4.292783
v -4.000000 -3.552458 3.986221
v -4.306563 -3.552458 3.527417
v -4.847759 -2.903611 2.986221
v -3.000000 -3.986004 3.751587
v -3.292893 -3.986004 3.693327
v -3.541196 -3.986004 3.527417
v -3.707107 -3.986004 3.279114
v -4.414214 -3.552458 2.986221
v -3.000000 -4.138245 2.986221
v -3.765367 -3.986004 2.986221
v -5.000000 3.611756 2.986221
v -4.847759 3.611756 3.751587
v -4.414214 3.611756 4.400434
v -3.765367 3.611756 4.833980
v -3.000000 3.611756 4.986220
v -5.000000 -2.138245 -3.763780
v -5.000000 3.611756 -3.763780
v 2.750000 -2.138245 4.986220
v 2.750000 3.611756 4.986220
v -3.000000 4.073695 4.677562
v -3.000000 4.111756 4.486220
v -3.574025 4.111756 4.372040
v -3.647249 4.073695 4.548817
v -4.060660 4.111756 4.046881
v -4.195959 4.073695 4.182179
v -4.385819 4.111756 3.560246
v -4.562596 4.073695 3.633469
v -4.500000 4.111756 2.986221
v -3.000000 3.965308 4.839774
v -3.709324 3.965308 4.698680
v -4.310660 3.965308 4.296881
v -4.712460 3.965308 3.695544
v -4.691342 4.073695 2.986221
v -3.000000 3.803098 4.948160
v -3.750802 3.803098 4.798817
v -4.387301 3.803098 4.373521
v -4.812596 3.803098 3.737023
v -4.853553 3.965308 2.986221
v -4.961940 3.803098 2.986221
v -4.500000 4.111756 -3.763780
v -4.691342 4.073695 -3.763780
v -4.853553 3.965308 -3.763780
v -4.961940 3.803098 -3.763780
v -4.385819 4.111756 -4.337805
v -4.562596 4.073695 -4.411028
v -4.060660 4.111756 -4.824440
v -4.195959 4.073695 -4.959739
v -3.574025 4.111756 -5.149599
v -3.647249 4.073695 -5.326376
v -3.000000 4.111756 -5.263780
v -4.712460 3.965308 -4.473104
v -4.310660 3.965308 -5.074440
v -3.709324 3.965308 -5.476240
v -3.000000 4.073695 -5.455122
v -4.812596 3.803098 -4.514582
v -4.387301 3.803098 -5.151080
v -3.750802 3.803098 -5.576376
v -3.000000 3.965308 -5.617333
v -4.847759 3.611756 -4.529146
v -4.414214 3.611756 -5.177994
v -3.765367 3.611756 -5.611539
v -3.000000 3.803098 -5.725719
v -3.000000 3.611756 -5.763780
v 2.750000 4.111756 4.486220
v 2.750000 4.073695 4.677562
v 2.750000 3.965308 4.839774
v 2.750000 3.803098 4.948160
v 4.441342 4.073695 2.986221
v 4.250000 4.111756 2.986221
v 4.135819 4.111756 3.560246
v 4.312596 4.073695 3.633469
v 3.810660 4.111756 4.046881
v 3.945959 4.073695 4.182179
v 3.324025 4.111756 4.372040
v 3.397249 4.073695 4.548817
v 4.603553 3.965308 2.986221
v 4.462460 3.965308 3.695544
v 4.060660 3.965308 4.296881
v 3.459324 3.965308 4.698680
v 4.711940 3.803098 2.986221
v 4.562596 3.803098 3.737023
v 4.137301 3.803098 4.373521
v 3.500802 3.803098 4.798817
v 4.750000 3.611756 2.986221
v 4.597759 3.611756 3.751587
v 4.164214 3.611756 4.400434
v 3.515367 3.611756 4.833980
v 2.750000 4.111756 -5.263780
v 4.250000 4.111756 -3.763780
v 4.135819 4.111756 -4.337805
v 3.810660 4.111756 -4.824440
v 3.324025 4.111756 -5.149599
v 2.750000 4.073695 -5.455122
v 3.397249 4.073695 -5.326376
v 3.945959 4.073695 -4.959739
v 4.312596 4.073695 -4.411028
v 2.750000 3.965308 -5.617333
v 3.459324 3.965308 -5.476240
v 4.060660 3.965308 -5.074440
v 4.462460 3.965308 -4.473104
v 4.441342 4.073695 -3.763780
v 2.750000 3.803098 -5.725719
v 3.500802 3.803098 -5.576376
v 4.137301 3.803098 -5.151080
v 4.562596 3.803098 -4.514582
v 4.603553 3.965308 -3.763780
v 2.750000 3.611756 -5.763780
v 3.515367 3.611756 -5.611539
v 4.164214 3.611756 -5.177994
v 4.597759 3.611756 -4.529146
v 4.711940 3.803098 -3.763780
v 4.750000 3.611756 -3.763780
v -3.000000 -2.138245 -5.763780
v 2.750000 -2.138245 -5.763780
v -4.847759 -2.138245 -4.529146
v -4.414214 -2.138245 -5.177994
v -3.765367 -2.138245 -5.611539
v -4.847759 -2.903611 -3.763780
v -4.707107 -2.903611 -4.470886
v -4.306563 -2.903611 -5.070343
v -3.707107 -2.903611 -5.470886
v -4.414214 -3.552458 -3.763780
v -4.306563 -3.552458 -4.304976
v -4.000000 -3.552458 -4.763780
v -3.541196 -3.552458 -5.070343
v -3.000000 -2.903611 -5.611539
v -3.765367 -3.986004 -3.763780
v -3.707107 -3.986004 -4.056673
v -3.541196 -3.986004 -4.304976
v -3.292893 -3.986004 -4.470886
v -3.000000 -3.552458 -5.177994
v -3.000000 -4.138245 -3.763780
v -3.000000 -3.986004 -4.529146
v 2.750000 -4.138245 -3.763780
v 2.750000 -4.138245 2.986221
v 2.750000 -3.986004 3.751587
v 2.750000 -3.552458 4.400434
v 2.750000 -2.903611 4.833980
v 4.597759 -2.903611 2.986221
v 4.750000 -2.138245 2.986221
v 4.597759 -2.138245 3.751587
v 4.457107 -2.903611 3.693327
v 4.164214 -2.138245 4.400434
v 4.056563 -2.903611 4.292783
v 3.515367 -2.138245 4.833980
v 3.457107 -2.903611 4.693327
v 4.164214 -3.552458 2.986221
v 4.056563 -3.552458 3.527417
v 3.750000 -3.552458 3.986221
v 3.291196 -3.552458 4.292783
v 3.515367 -3.986004 2.986221
v 3.457107 -3.986004 3.279114
v 3.291196 -3.986004 3.527417
v 3.042893 -3.986004 3.693327
v 4.750000 -2.138245 -3.763780
v 4.597759 -2.138245 -4.529146
v 4.164214 -2.138245 -5.177994
v 3.515367 -2.138245 -5.611539
v 2.750000 -3.986004 -4.529146
v 2.750000 -3.552458 -5.177994
v 2.750000 -2.903611 -5.611539
v 4.597759 -2.903611 -3.763780
v 4.164214 -3.552458 -3.763780
v 3.515367 -3.986004 -3.763780
v 3.457107 -2.903611 -5.470886
v 4.056563 -2.903611 -5.070343
v 4.457107 -2.903611 -4.470886
v 3.291196 -3.552458 -5.070343
v 3.750000 -3.552458 -4.763780
v 4.056563 -3.552458 -4.304976
v 3.042893 -3.986004 -4.470886
v 3.291196 -3.986004 -4.304976
v 3.457107 -3.986004 -4.056673
vn -0.1915 -0.1915 0.9626
vn -0.5453 -0.1915 0.8161
vn -0.8161 -0.1915 0.5453
vn -0.9626 -0.1915 0.1915
vn -0.1632 -0.5481 0.8203
vn -0.4647 -0.5481 0.6954
vn -0.6954 -0.5481 0.4647
vn -0.8203 -0.5481 0.1632
vn -0.1098 -0.8264 0.5522
vn -0.3128 -0.8264 0.4681
vn -0.4681 -0.8264 0.3128
vn -0.5522 -0.8264 0.1098
vn -0.1949 -0.9800 0.0388
vn -0.1653 -0.9800 0.1104
vn -0.1104 -0.9800 0.1653
vn -0.0388 -0.9800 0.1949
vn -0.9808 0.0000 0.1951
vn -0.8315 0.0000 0.5556
vn -0.5556 0.0000 0.8315
vn -0.1951 0.0000 0.9808
vn -1.0000 0.0000 0.0000
vn 0.0000 0.0000 1.0000
vn -0.0388 0.9800 0.1949
vn -0.1104 0.9800 0.1653
vn -0.1653 0.9800 0.1104
vn -0.1949 0.9800 0.0388
vn -0.1098 0.8264 0.5522
vn -0.3128 0.8264 0.4681
vn -0.4681 0.8264 0.3128
vn -0.5522 0.8264 0.1098
vn -0.1632 0.5481 0.8203
vn -0.4647 0.5481 0.6954
vn -0.6954 0.5481 0.4647
vn -0.8203 0.5481 0.1632
vn -0.1915 0.1915 0.9626
vn -0.5453 0.1915 0.8161
vn -0.8161 0.1915 0.5453
vn -0.9626 0.1915 0.1915
vn -0.1951 0.9808 0.0000
vn -0.5556 0.8315 0.0000
vn -0.8315 0.5556 0.0000
vn -0.9808 0.1951 0.0000
vn -0.1949 0.9800 -0.0388
vn -0.1653 0.9800 -0.1104
vn -0.1104 0.9800 -0.1653
vn -0.0388 0.9800 -0.1949
vn -0.5522 0.8264 -0.1098
vn -0.4681 0.8264 -0.3128
vn -0.3128 0.8264 -0.4681
vn -0.1098 0.8264 -0.5522
vn -0.8203 0.5481 -0.1632
vn -0.6954 0.5481 -0.4647
vn -0.4647 0.5481 -0.6954
vn -0.1632 0.5481 -0.8203
vn -0.9626 0.1915 -0.1915
vn -0.8161 0.1915 -0.5453
vn -0.5453 0.1915 -0.8161
vn -0.1915 0.1915 -0.9626
vn 0.0000 0.9808 0.1951
vn 0.0000 0.8315 0.5556
vn 0.0000 0.5556 0.8315
vn 0.0000 0.1951 0.9808
vn 0.1949 0.9800 0.0388
vn 0.1653 0.9800 0.1104
vn 0.1104 0.9800 0.1653
vn 0.0388 0.9800 0.1949
vn 0.5522 0.8264 0.1098
vn 0.4681 0.8264 0.3128
vn 0.3128 0.8264 0.4681
vn 0.1098 0.8264 0.5522
vn 0.8203 0.5481 0.1632
vn 0.6954 0.5481 0.4647
vn 0.4647 0.5481 0.6954
vn 0.1632 0.5481 0.8203
vn 0.9626 0.1915 0.1915
vn 0.8161 0.1915 0.5453
vn 0.5453 0.1915 0.8161
vn 0.1915 0.1915 0.9626
vn 0.0000 1.0000 0.0000
vn 0.0388 0.9800 -0.1949
vn 0.1104 0.9800 -0.1653
vn 0.1653 0.9800 -0.1104
vn 0.1949 0.9800 -0.0388
vn 0.1098 0.8264 -0.5522
vn 0.3128 0.8264 -0.4681
vn 0.4681 0.8264 -0.3128
vn 0.5522 0.8264 -0.1098
vn 0.1632 0.5481 -0.8203
vn 0.4647 0.5481 -0.6954
vn 0.6954 0.5481 -0.4647
vn 0.8203 0.5481 -0.1632
vn 0.1915 0.1915 -0.9626
vn 0.5453 0.1915 -0.8161
vn 0.8161 0.1915 -0.5453
vn 0.9626 0.1915 -0.1915
vn 0.0000 0.9808 -0.1951
vn 0.0000 0.8315 -0.5556
vn 0.0000 0.5556 -0.8315
vn 0.0000 0.1951 -0.9808
vn 0.0000 0.0000 -1.0000
vn -0.9808 0.0000 -0.1951
vn -0.8315 0.0000 -0.5556
vn -0.5556 0.0000 -0.8315
vn -0.1951 0.0000 -0.9808
vn -0.9626 -0.1915 -0.1915
vn -0.8161 -0.1915 -0.5453
vn -0.5453 -0.1915 -0.8161
vn -0.1915 -0.1915 -0.9626
vn -0.8203 -0.5481 -0.1632
vn -0.6954 -0.5481 -0.4647
vn -0.4647 -0.5481 -0.6954
vn -0.1632 -0.5481 -0.8203
vn -0.5522 -0.8264 -0.1098
vn -0.4681 -0.8264 -0.3128
vn -0.3128 -0.8264 -0.4681
vn -0.1098 -0.8264 -0.5522
vn -0.0388 -0.9800 -0.1949
vn -0.1104 -0.9800 -0.1653
vn -0.1653 -0.9800 -0.1104
vn -0.1949 -0.9800 -0.0388
vn -0.1951 -0.9808 0.0000
vn -0.5556 -0.8315 0.0000
vn -0.8315 -0.5556 0.0000
vn -0.9808 -0.1951 0.0000
vn 0.0000 -1.0000 0.0000
vn 0.0000 -0.9808 0.1951
vn 0.0000 -0.8315 0.5556
vn 0.0000 -0.5556 0.8315
vn 0.0000 -0.1951 0.9808
vn 0.9626 -0.1915 0.1915
vn 0.8161 -0.1915 0.5453
vn 0.5453 -0.1915 0.8161
vn 0.1915 -0.1915 0.9626
vn 0.8203 -0.5481 0.1632
vn 0.6954 -0.5481 0.4647
vn 0.4647 -0.5481 0.6954
vn 0.1632 -0.5481 0.8203
vn 0.5522 -0.8264 0.1098
vn 0.4681 -0.8264 0.3128
vn 0.3128 -0.8264 0.4681
vn 0.1098 -0.8264 0.5522
vn 0.0388 -0.9800 0.1949
vn 0.1104 -0.9800 0.1653
vn 0.1653 -0.9800 0.1104
vn 0.1949 -0.9800 0.0388
vn 0.9808 0.0000 0.1951
vn 0.8315 0.0000 0.5556
vn 0.5556 0.0000 0.8315
vn 0.1951 0.0000 0.9808
vn 1.0000 0.0000 0.0000
vn 0.9808 0.1951 0.0000
vn 0.8315 0.5556 0.0000
vn 0.5556 0.8315 0.0000
vn 0.1951 0.9808 0.0000
vn 0.9808 0.0000 -0.1951
vn 0.8315 0.0000 -0.5556
vn 0.5556 0.0000 -0.8315
vn 0.1951 0.0000 -0.9808
vn 0.0000 -0.9808 -0.1951
vn 0.0000 -0.8315 -0.5556
vn 0.0000 -0.5556 -0.8315
vn 0.0000 -0.1951 -0.9808
vn 0.9808 -0.1951 0.0000
vn 0.8315 -0.5556 0.0000
vn 0.5556 -0.8315 0.0000
vn 0.1951 -0.9808 0.0000
vn 0.1915 -0.1915 -0.9626
vn 0.5453 -0.1915 -0.8161
vn 0.8161 -0.1915 -0.5453
vn 0.9626 -0.1915 -0.1915
vn 0.1632 -0.5481 -0.8203
vn 0.4647 -0.5481 -0.6954
vn 0.6954 -0.5481 -0.4647
vn 0.8203 -0.5481 -0.1632
vn 0.1098 -0.8264 -0.5522
vn 0.3128 -0.8264 -0.4681
vn 0.4681 -0.8264 -0.3128
vn 0.5522 -0.8264 -0.1098
vn 0.1949 -0.9800 -0.0388
vn 0.1653 -0.9800 -0.1104
vn 0.1104 -0.9800 -0.1653
vn 0.0388 -0.9800 -0.1949
usemtl None
s off
f 1//1 2//1 3//1
f 4//2 3//2 5//2
f 6//3 5//3 7//3
f 8//4 7//4 9//4
f 10//5 1//5 4//5
f 11//6 4//6 6//6
f 12//7 6//7 8//7
f 13//8 8//8 14//8
f 15//9 10//9 11//9
f 16//10 11//10 12//10
f 17//11 12//11 13//11
f 18//12 13//12 19//12
f 20//13 18//13 21//13
f 20//14 17//14 18//14
f 20//15 16//15 17//15
f 20//16 15//16 16//16
f 19//12 21//12 18//12
f 13//11 18//11 17//11
f 12//10 17//10 16//10
f 11//9 16//9 15//9
f 14//8 19//8 13//8
f 8//7 13//7 12//7
f 6//6 12//6 11//6
f 4//5 11//5 10//5
f 9//4 14//4 8//4
f 7//3 8//3 6//3
f 5//2 6//2 4//2
f 3//1 4//1 1//1
f 22//17 9//17 7//17
f 23//18 7//18 5//18
f 24//19 5//19 3//19
f 25//20 3//20 2//20
f 2//20 26//20 25//20
f 3//19 25//19 24//19
f 5//18 24//18 23//18
f 7//17 23//17 22//17
f 27//21 9//21 22//21
f 22//21 28//21 27//21
f 2//22 29//22 30//22
f 30//22 26//22 2//22
f 31//23 32//23 33//23
f 34//24 33//24 35//24
f 36//25 35//25 37//25
f 38//26 37//26 39//26
f 40//27 31//27 34//27
f 41//28 34//28 36//28
f 42//29 36//29 38//29
f 43//30 38//30 44//30
f 45//31 40//31 41//31
f 46//32 41//32 42//32
f 47//33 42//33 43//33
f 48//34 43//34 49//34
f 26//35 45//35 46//35
f 25//36 46//36 47//36
f 24//37 47//37 48//37
f 23//38 48//38 50//38
f 50//38 22//38 23//38
f 48//37 23//37 24//37
f 47//36 24//36 25//36
f 46//35 25//35 26//35
f 49//34 50//34 48//34
f 43//33 48//33 47//33
f 42//32 47//32 46//32
f 41//31 46//31 45//31
f 44//30 49//30 43//30
f 38//29 43//29 42//29
f 36//28 42//28 41//28
f 34//27 41//27 40//27
f 39//26 44//26 38//26
f 37//25 38//25 36//25
f 35//24 36//24 34//24
f 33//23 34//23 31//23
f 39//39 51//39 52//39
f 44//40 52//40 53//40
f 49//41 53//41 54//41
f 50//42 54//42 28//42
f 28//42 22//42 50//42
f 54//41 50//41 49//41
f 53//40 49//40 44//40
f 52//39 44//39 39//39
f 52//43 51//43 55//43
f 56//44 55//44 57//44
f 58//45 57//45 59//45
f 60//46 59//46 61//46
f 53//47 52//47 56//47
f 62//48 56//48 58//48
f 63//49 58//49 60//49
f 64//50 60//50 65//50
f 54//51 53//51 62//51
f 66//52 62//52 63//52
f 67//53 63//53 64//53
f 68//54 64//54 69//54
f 28//55 54//55 66//55
f 70//56 66//56 67//56
f 71//57 67//57 68//57
f 72//58 68//58 73//58
f 73//58 74//58 72//58
f 68//57 72//57 71//57
f 67//56 71//56 70//56
f 66//55 70//55 28//55
f 69//54 73//54 68//54
f 64//53 68//53 67//53
f 63//52 67//52 66//52
f 62//51 66//51 54//51
f 65//50 69//50 64//50
f 60//49 64//49 63//49
f 58//48 63//48 62//48
f 56//47 62//47 53//47
f 61//46 65//46 60//46
f 59//45 60//45 58//45
f 57//44 58//44 56//44
f 55//43 56//43 52//43
f 75//59 32//59 31//59
f 76//60 31//60 40//60
f 77//61 40//61 45//61
f 78//62 45//62 26//62
f 26//62 30//62 78//62
f 45//61 78//61 77//61
f 40//60 77//60 76//60
f 31//59 76//59 75//59
f 79//63 80//63 81//63
f 82//64 81//64 83//64
f 84//65 83//65 85//65
f 86//66 85//66 75//66
f 87//67 79//67 82//67
f 88//68 82//68 84//68
f 89//69 84//69 86//69
f 90//70 86//70 76//70
f 91//71 87//71 88//71
f 92//72 88//72 89//72
f 93//73 89//73 90//73
f 94//74 90//74 77//74
f 95//75 91//75 92//75
f 96//76 92//76 93//76
f 97//77 93//77 94//77
f 98//78 94//78 78//78
f 78//78 30//78 98//78
f 94//77 98//77 97//77
f 93//76 97//76 96//76
f 92//75 96//75 95//75
f 77//74 78//74 94//74
f 90//73 94//73 93//73
f 89//72 93//72 92//72
f 88//71 92//71 91//71
f 76//70 77//70 90//70
f 86//69 90//69 89//69
f 84//68 89//68 88//68
f 82//67 88//67 87//67
f 75//66 76//66 86//66
f 85//65 86//65 84//65
f 83//64 84//64 82//64
f 81//63 82//63 79//63
f 37//79 35//79 33//79
f 32//79 39//79 37//79
f 61//79 51//79 39//79
f 61//79 57//79 55//79
f 99//79 100//79 101//79
f 39//79 32//79 61//79
f 61//79 59//79 57//79
f 101//79 102//79 99//79
f 99//79 75//79 80//79
f 80//79 75//79 85//79
f 55//79 51//79 61//79
f 32//79 75//79 99//79
f 80//79 100//79 99//79
f 85//79 83//79 80//79
f 99//79 61//79 32//79
f 83//79 81//79 80//79
f 102//79 103//79 99//79
f 33//79 32//79 37//79
f 104//80 99//80 103//80
f 105//81 103//81 102//81
f 106//82 102//82 101//82
f 107//83 101//83 100//83
f 108//84 104//84 105//84
f 109//85 105//85 106//85
f 110//86 106//86 107//86
f 111//87 107//87 112//87
f 113//88 108//88 109//88
f 114//89 109//89 110//89
f 115//90 110//90 111//90
f 116//91 111//91 117//91
f 118//92 113//92 114//92
f 119//93 114//93 115//93
f 120//94 115//94 116//94
f 121//95 116//95 122//95
f 122//95 123//95 121//95
f 116//94 121//94 120//94
f 115//93 120//93 119//93
f 114//92 119//92 118//92
f 117//91 122//91 116//91
f 111//90 116//90 115//90
f 110//89 115//89 114//89
f 109//88 114//88 113//88
f 112//87 117//87 111//87
f 107//86 111//86 110//86
f 106//85 110//85 109//85
f 105//84 109//84 108//84
f 100//83 112//83 107//83
f 101//82 107//82 106//82
f 102//81 106//81 105//81
f 103//80 105//80 104//80
f 61//96 99//96 104//96
f 65//97 104//97 108//97
f 69//98 108//98 113//98
f 73//99 113//99 118//99
f 118//99 74//99 73//99
f 113//98 73//98 69//98
f 108//97 69//97 65//97
f 104//96 65//96 61//96
f 124//100 74//100 118//100
f 118//100 125//100 124//100
f 27//101 28//101 70//101
f 126//102 70//102 71//102
f 127//103 71//103 72//103
f 128//104 72//104 74//104
f 74//104 124//104 128//104
f 72//103 128//103 127//103
f 71//102 127//102 126//102
f 70//101 126//101 27//101
f 129//105 27//105 126//105
f 130//106 126//106 127//106
f 131//107 127//107 128//107
f 132//108 128//108 124//108
f 133//109 129//109 130//109
f 134//110 130//110 131//110
f 135//111 131//111 132//111
f 136//112 132//112 137//112
f 138//113 133//113 134//113
f 139//114 134//114 135//114
f 140//115 135//115 136//115
f 141//116 136//116 142//116
f 143//117 141//117 144//117
f 143//118 140//118 141//118
f 143//119 139//119 140//119
f 143//120 138//120 139//120
f 142//116 144//116 141//116
f 136//115 141//115 140//115
f 135//114 140//114 139//114
f 134//113 139//113 138//113
f 137//112 142//112 136//112
f 132//111 136//111 135//111
f 131//110 135//110 134//110
f 130//109 134//109 133//109
f 124//108 137//108 132//108
f 128//107 132//107 131//107
f 127//106 131//106 130//106
f 126//105 130//105 129//105
f 143//121 20//121 21//121
f 138//122 21//122 19//122
f 133//123 19//123 14//123
f 129//124 14//124 9//124
f 9//124 27//124 129//124
f 14//123 129//123 133//123
f 19//122 133//122 138//122
f 21//121 138//121 143//121
f 20//125 143//125 145//125
f 145//125 146//125 20//125
f 20//126 146//126 147//126
f 15//127 147//127 148//127
f 10//128 148//128 149//128
f 1//129 149//129 29//129
f 29//129 2//129 1//129
f 149//128 1//128 10//128
f 148//127 10//127 15//127
f 147//126 15//126 20//126
f 150//130 151//130 152//130
f 153//131 152//131 154//131
f 155//132 154//132 156//132
f 157//133 156//133 29//133
f 158//134 150//134 153//134
f 159//135 153//135 155//135
f 160//136 155//136 157//136
f 161//137 157//137 149//137
f 162//138 158//138 159//138
f 163//139 159//139 160//139
f 164//140 160//140 161//140
f 165//141 161//141 148//141
f 146//142 165//142 147//142
f 146//143 164//143 165//143
f 146//144 163//144 164//144
f 146//145 162//145 163//145
f 148//141 147//141 165//141
f 161//140 165//140 164//140
f 160//139 164//139 163//139
f 159//138 163//138 162//138
f 149//137 148//137 161//137
f 157//136 161//136 160//136
f 155//135 160//135 159//135
f 153//134 159//134 158//134
f 29//133 149//133 157//133
f 156//132 157//132 155//132
f 154//131 155//131 153//131
f 152//130 153//130 150//130
f 151//146 95//146 96//146
f 152//147 96//147 97//147
f 154//148 97//148 98//148
f 156//149 98//149 30//149
f 30//149 29//149 156//149
f 98//148 156//148 154//148
f 97//147 154//147 152//147
f 96//146 152//146 151//146
f 151//150 166//150 123//150
f 123//150 95//150 151//150
f 95//151 123//151 122//151
f 91//152 122//152 117//152
f 87//153 117//153 112//153
f 79//154 112//154 100//154
f 100//154 80//154 79//154
f 112//153 79//153 87//153
f 117//152 87//152 91//152
f 122//151 91//151 95//151
f 123//155 166//155 167//155
f 121//156 167//156 168//156
f 120//157 168//157 169//157
f 119//158 169//158 125//158
f 125//158 118//158 119//158
f 169//157 119//157 120//157
f 168//156 120//156 121//156
f 167//155 121//155 123//155
f 145//159 143//159 144//159
f 170//160 144//160 142//160
f 171//161 142//161 137//161
f 172//162 137//162 124//162
f 124//162 125//162 172//162
f 137//161 172//161 171//161
f 142//160 171//160 170//160
f 144//159 170//159 145//159
f 166//163 151//163 150//163
f 173//164 150//164 158//164
f 174//165 158//165 162//165
f 175//166 162//166 146//166
f 146//166 145//166 175//166
f 162//165 175//165 174//165
f 158//164 174//164 173//164
f 150//163 173//163 166//163
f 172//167 125//167 169//167
f 176//168 169//168 168//168
f 177//169 168//169 167//169
f 178//170 167//170 166//170
f 171//171 172//171 176//171
f 179//172 176//172 177//172
f 180//173 177//173 178//173
f 181//174 178//174 173//174
f 170//175 171//175 179//175
f 182//176 179//176 180//176
f 183//177 180//177 181//177
f 184//178 181//178 174//178
f 145//179 184//179 175//179
f 145//180 183//180 184//180
f 145//181 182//181 183//181
f 145//182 170//182 182//182
f 174//178 175//178 184//178
f 181//177 184//177 183//177
f 180//176 183//176 182//176
f 179//175 182//175 170//175
f 173//174 174//174 181//174
f 178//173 181//173 180//173
f 177//172 180//172 179//172
f 176//171 179//171 171//171
f 166//170 173//170 178//170
f 167//169 178//169 177//169
f 168//168 177//168 176//168
f 169//167 176//167 172//167
